<svg xmlns="http://www.w3.org/2000/svg" xmlns:xlink="http://www.w3.org/1999/xlink" width="500" zoomAndPan="magnify" viewBox="0 0 375 374.999991" height="500" preserveAspectRatio="xMidYMid meet" version="1.0"><defs><clipPath id="d7c90facd1"><path d="M 37.5 42.820312 L 343.300781 42.820312 L 343.300781 332.105469 L 37.5 332.105469 Z M 37.5 42.820312 " clip-rule="nonzero"/></clipPath><clipPath id="25775d50e3"><path d="M 92.902344 141.628906 L 291.871094 141.628906 L 291.871094 233.371094 L 92.902344 233.371094 Z M 92.902344 141.628906 " clip-rule="nonzero"/></clipPath><clipPath id="d88253e178"><path d="M 142.871094 69 L 307.121094 69 L 307.121094 187.667969 L 142.871094 187.667969 Z M 142.871094 69 " clip-rule="nonzero"/></clipPath></defs><rect x="-37.5" width="450" fill="#ffffff" y="-37.499999" height="449.999989" fill-opacity="1"/><rect x="-37.5" width="450" fill="#ffffff" y="-37.499999" height="449.999989" fill-opacity="1"/><g clip-path="url(#d7c90facd1)"><path fill="#5e1bdc" d="M 77.871094 42.820312 C 55.769531 42.820312 37.679688 60.90625 37.679688 83.007812 L 37.679688 291.992188 C 37.679688 314.09375 55.769531 332.179688 77.871094 332.179688 L 302.929688 332.179688 C 325.03125 332.179688 343.117188 314.09375 343.117188 291.992188 L 343.117188 83.007812 C 343.117188 60.90625 325.03125 42.820312 302.929688 42.820312 Z M 77.871094 58.894531 L 302.929688 58.894531 C 316.339844 58.894531 327.042969 69.597656 327.042969 83.007812 L 327.042969 291.992188 C 327.042969 305.402344 316.339844 316.105469 302.929688 316.105469 L 77.871094 316.105469 C 64.457031 316.105469 53.757812 305.402344 53.757812 291.992188 L 53.757812 83.007812 C 53.757812 69.597656 64.457031 58.894531 77.871094 58.894531 Z M 191.167969 155.082031 C 183.277344 155.082031 177.148438 157.0625 172.800781 161.03125 C 168.453125 165.011719 166.269531 169.757812 166.269531 175.285156 C 166.269531 179.972656 167.671875 183.5625 170.460938 186.054688 C 173.242188 188.578125 178.035156 190.695312 184.84375 192.382812 C 194.300781 194.617188 199.753906 196.191406 201.214844 197.109375 C 202.679688 198.023438 203.414062 199.351562 203.414062 201.109375 C 203.414062 202.945312 202.507812 204.324219 200.683594 205.238281 C 198.859375 206.15625 196.40625 206.621094 193.320312 206.621094 C 188.046875 206.621094 184.441406 205.570312 182.488281 203.480469 C 181.378906 202.316406 180.667969 200.335938 180.335938 197.546875 L 164.449219 197.546875 C 164.449219 203.703125 166.699219 208.765625 171.199219 212.742188 C 175.699219 216.714844 182.660156 218.710938 192.09375 218.710938 C 201.347656 218.710938 208.183594 216.828125 212.613281 213.074219 C 217.035156 209.3125 219.238281 204.46875 219.238281 198.535156 C 219.238281 194.035156 217.703125 190.285156 214.621094 187.28125 C 211.503906 184.3125 206.832031 182.09375 200.605469 180.625 C 191.238281 178.574219 185.78125 177.125 184.246094 176.289062 C 182.703125 175.488281 181.9375 174.183594 181.9375 172.382812 C 181.9375 170.953125 182.671875 169.707031 184.121094 168.644531 C 185.566406 167.585938 188.003906 167.058594 191.421875 167.058594 C 195.574219 167.058594 198.5 168.117188 200.226562 170.246094 C 201.144531 171.421875 201.722656 173 201.9375 175.019531 L 217.605469 175.019531 C 216.90625 167.695312 214.191406 162.539062 209.472656 159.554688 C 204.753906 156.566406 198.660156 155.082031 191.167969 155.082031 Z M 130.523438 155.191406 C 121.746094 155.191406 114.609375 157.957031 109.109375 163.496094 C 103.613281 169.035156 100.867188 176.980469 100.867188 187.359375 C 100.867188 198.425781 103.914062 206.417969 110.003906 211.332031 C 116.097656 216.242188 123.132812 218.710938 131.105469 218.710938 C 140.757812 218.710938 148.269531 215.792969 153.632812 209.964844 C 157.089844 206.300781 159.015625 202.6875 159.441406 199.132812 L 143.460938 199.132812 C 142.527344 200.894531 141.457031 202.273438 140.242188 203.261719 C 138.015625 205.09375 135.105469 206.007812 131.542969 206.007812 C 128.175781 206.007812 125.296875 205.265625 122.910156 203.765625 C 118.980469 201.34375 116.886719 197.128906 116.644531 191.125 L 160.273438 191.125 C 160.355469 185.949219 160.179688 181.992188 159.753906 179.242188 C 159.023438 174.539062 157.441406 170.417969 154.984375 166.855469 C 152.265625 162.820312 148.816406 159.851562 144.636719 157.984375 C 140.457031 156.113281 135.757812 155.183594 130.523438 155.191406 Z M 255.691406 155.347656 C 246.851562 155.347656 239.921875 158.222656 234.890625 163.9375 C 229.859375 169.652344 227.355469 177.636719 227.355469 187.90625 C 227.355469 197.015625 229.632812 204.421875 234.183594 210.136719 C 238.726562 215.851562 245.820312 218.710938 255.457031 218.710938 C 265.101562 218.710938 272.382812 215.296875 277.292969 208.441406 C 280.371094 204.191406 282.105469 199.691406 282.472656 194.925781 L 266.492188 194.925781 C 266.164062 198.078125 265.203125 200.640625 263.667969 202.617188 C 262.113281 204.59375 259.523438 205.570312 255.847656 205.570312 C 250.679688 205.570312 247.140625 203.082031 245.265625 198.097656 C 244.238281 195.429688 243.746094 191.921875 243.746094 187.53125 C 243.746094 182.933594 244.238281 179.246094 245.265625 176.464844 C 247.21875 171.222656 250.84375 168.597656 256.132812 168.597656 C 259.835938 168.597656 262.574219 169.804688 264.339844 172.226562 C 265.546875 174.027344 266.304688 176.035156 266.601562 178.269531 L 282.644531 178.269531 C 281.761719 169.734375 278.945312 163.773438 274.152344 160.402344 C 269.371094 157.035156 263.214844 155.347656 255.691406 155.347656 Z M 130.554688 168.097656 C 134.253906 168.097656 137.332031 169.160156 139.832031 171.3125 C 142.332031 173.476562 143.71875 176.617188 144.007812 180.78125 L 117.039062 180.78125 C 117.609375 176.882812 119.003906 173.800781 121.214844 171.519531 C 123.425781 169.234375 126.542969 168.097656 130.554688 168.097656 Z M 130.554688 168.097656 " fill-opacity="1" fill-rule="nonzero"/></g><g clip-path="url(#25775d50e3)"><path fill="#ffffff" d="M 92.902344 141.628906 L 291.789062 141.628906 L 291.789062 233.371094 L 92.902344 233.371094 Z M 92.902344 141.628906 " fill-opacity="1" fill-rule="nonzero"/></g><g clip-path="url(#d88253e178)"><path fill="#99dc1b" d="M 307.308594 170.628906 L 287.304688 187.492188 L 253.402344 147.277344 L 236.480469 127.203125 L 215.019531 101.746094 C 209.921875 97.972656 204.050781 96.046875 198.082031 96.046875 C 193.839844 96.046875 189.554688 97.019531 185.453125 98.992188 C 175.21875 103.914062 169.113281 113.621094 169.113281 124.976562 C 169.113281 130.023438 170.304688 134.359375 172.191406 138.058594 C 175.609375 144.773438 181.363281 149.316406 186.910156 151.609375 C 193.101562 154.175781 201.464844 155.015625 209.402344 151.53125 C 209.589844 151.449219 209.8125 151.328125 210.074219 151.160156 C 221.171875 144.230469 235.6875 146.5625 244.121094 156.566406 L 236.824219 163.863281 C 220.800781 179.890625 197.835938 184.457031 176.894531 175.78125 C 160.117188 168.839844 148.457031 154.957031 144.472656 138.058594 C 143.480469 133.855469 142.945312 129.484375 142.945312 124.976562 C 142.945312 103.644531 154.882812 84.652344 174.113281 75.414062 C 193.34375 66.167969 215.632812 68.710938 232.289062 82.039062 L 234.113281 83.820312 L 255.039062 108.640625 L 264.324219 99.351562 L 288.058594 75.617188 L 306.554688 94.117188 L 271.964844 128.707031 Z M 307.308594 170.628906 " fill-opacity="1" fill-rule="nonzero"/></g></svg>