<svg xmlns="http://www.w3.org/2000/svg" version="1.1" xmlns:xlink="http://www.w3.org/1999/xlink" width="512" height="512" x="0" y="0" viewBox="0 0 512 512" style="enable-background:new 0 0 512 512" xml:space="preserve" class=""><g><path d="M382.839 366.106 332.53 257.212 452.03 0h-70.277L297.57 181.195 249.119 75.842C227.932 29.77 181.475 0 130.764 0 58.933 0 .493 58.439.493 130.271v251.458C.493 453.561 58.933 512 130.764 512h.27c50.493 0 96.867-29.589 118.143-75.381l48.098-103.525 27.745 59.827C358.696 465.536 431.462 512 511.507 512v-63.734c-55.017 0-105.522-32.25-128.668-82.16zm-191.463 43.658c-10.867 23.389-34.552 38.502-60.342 38.502h-.27c-36.688 0-66.536-29.848-66.536-66.536V130.271c0-36.688 29.848-66.536 66.537-66.536 25.9 0 49.629 15.205 60.45 38.737l71.1 154.605z" fill="#000000" opacity="1" data-original="#000000" class=""></path></g></svg>