<svg xmlns="http://www.w3.org/2000/svg" xmlns:xlink="http://www.w3.org/1999/xlink" width="48" zoomAndPan="magnify" viewBox="0 0 36 36.000001" height="48" preserveAspectRatio="xMidYMid meet" version="1.0"><defs><clipPath id="4898672d72"><path d="M 0.488281 0 L 35.511719 0 L 35.511719 35.027344 L 0.488281 35.027344 Z M 0.488281 0 " clip-rule="nonzero"/></clipPath><clipPath id="9e759bae76"><path d="M 10.546875 10.058594 L 25.140625 10.058594 L 25.140625 24.65625 L 10.546875 24.65625 Z M 10.546875 10.058594 " clip-rule="nonzero"/></clipPath></defs><g clip-path="url(#4898672d72)"><path fill="#ffffff" d="M 0.488281 0 L 35.511719 0 L 35.511719 35.027344 L 0.488281 35.027344 Z M 0.488281 0 " fill-opacity="1" fill-rule="nonzero"/><path fill="#ffffff" d="M 0.488281 0 L 35.511719 0 L 35.511719 35.027344 L 0.488281 35.027344 Z M 0.488281 0 " fill-opacity="1" fill-rule="nonzero"/></g><g clip-path="url(#9e759bae76)"><path fill="#0277b5" d="M 23.921875 10.058594 L 11.773438 10.058594 C 11.101562 10.058594 10.5625 10.609375 10.5625 11.273438 L 10.5625 23.441406 C 10.5625 24.113281 11.109375 24.65625 11.773438 24.65625 L 23.914062 24.65625 C 24.585938 24.65625 25.128906 24.109375 25.128906 23.441406 L 25.128906 11.273438 C 25.132812 10.609375 24.59375 10.058594 23.921875 10.058594 Z M 14.875 22.101562 L 12.722656 22.101562 L 12.722656 15.632812 L 14.875 15.632812 Z M 13.796875 14.851562 C 13.117188 14.851562 12.570312 14.300781 12.570312 13.625 C 12.570312 12.945312 13.117188 12.398438 13.796875 12.398438 C 14.476562 12.398438 15.023438 12.945312 15.023438 13.625 C 15.023438 14.300781 14.476562 14.851562 13.796875 14.851562 Z M 22.980469 22.101562 L 20.820312 22.101562 L 20.769531 18.257812 C 20.769531 18.257812 20.820312 17.238281 19.703125 17.246094 C 18.585938 17.25 18.433594 18.257812 18.433594 18.257812 L 18.433594 22.101562 L 16.257812 22.101562 L 16.257812 15.632812 L 18.34375 15.632812 L 18.34375 16.523438 C 18.34375 16.523438 18.433594 16.230469 18.914062 15.886719 C 19.394531 15.542969 20.191406 15.46875 20.535156 15.484375 C 20.878906 15.5 21.34375 15.441406 22.125 15.980469 C 22.964844 16.558594 22.988281 18.070312 22.988281 18.070312 Z M 22.980469 22.101562 " fill-opacity="1" fill-rule="nonzero"/></g></svg>